<mxfile host="65bd71144e">
    <diagram id="ZodMPi4AldFM6UpP7LzA" name="Page-1">
        <mxGraphModel dx="832" dy="563" grid="1" gridSize="10" guides="1" tooltips="1" connect="1" arrows="1" fold="1" page="1" pageScale="1" pageWidth="827" pageHeight="1169" math="0" shadow="0">
            <root>
                <mxCell id="0"/>
                <mxCell id="1" parent="0"/>
                <mxCell id="155" style="edgeStyle=none;shape=link;html=1;" parent="1" source="96" target="120" edge="1">
                    <mxGeometry relative="1" as="geometry"/>
                </mxCell>
                <mxCell id="179" style="edgeStyle=orthogonalEdgeStyle;shape=link;html=1;entryX=0.5;entryY=0;entryDx=0;entryDy=0;" parent="1" source="96" target="132" edge="1">
                    <mxGeometry relative="1" as="geometry"/>
                </mxCell>
                <mxCell id="96" value="User" style="shape=table;startSize=40;container=1;collapsible=0;childLayout=tableLayout;" parent="1" vertex="1">
                    <mxGeometry x="40" y="40" width="120" height="180" as="geometry"/>
                </mxCell>
                <mxCell id="97" value="" style="shape=tableRow;horizontal=0;startSize=0;swimlaneHead=0;swimlaneBody=0;top=0;left=0;bottom=0;right=0;collapsible=0;dropTarget=0;fillColor=none;points=[[0,0.5],[1,0.5]];portConstraint=eastwest;" parent="96" vertex="1">
                    <mxGeometry y="40" width="120" height="28" as="geometry"/>
                </mxCell>
                <mxCell id="98" value="&amp;nbsp; id" style="shape=partialRectangle;html=1;whiteSpace=wrap;connectable=0;overflow=hidden;top=0;left=0;bottom=0;right=0;pointerEvents=1;fillColor=#6a00ff;fontColor=#ffffff;strokeColor=#3700CC;align=left;" parent="97" vertex="1">
                    <mxGeometry width="120" height="28" as="geometry">
                        <mxRectangle width="120" height="28" as="alternateBounds"/>
                    </mxGeometry>
                </mxCell>
                <mxCell id="99" value="" style="shape=tableRow;horizontal=0;startSize=0;swimlaneHead=0;swimlaneBody=0;top=0;left=0;bottom=0;right=0;collapsible=0;dropTarget=0;fillColor=none;points=[[0,0.5],[1,0.5]];portConstraint=eastwest;align=left;" parent="96" vertex="1">
                    <mxGeometry y="68" width="120" height="28" as="geometry"/>
                </mxCell>
                <mxCell id="100" value="&amp;nbsp; email" style="shape=partialRectangle;html=1;whiteSpace=wrap;connectable=0;overflow=hidden;top=0;left=0;bottom=0;right=0;pointerEvents=1;fillColor=#6a00ff;fontColor=#ffffff;strokeColor=#3700CC;align=left;" parent="99" vertex="1">
                    <mxGeometry width="120" height="28" as="geometry">
                        <mxRectangle width="120" height="28" as="alternateBounds"/>
                    </mxGeometry>
                </mxCell>
                <mxCell id="101" value="" style="shape=tableRow;horizontal=0;startSize=0;swimlaneHead=0;swimlaneBody=0;top=0;left=0;bottom=0;right=0;collapsible=0;dropTarget=0;fillColor=none;points=[[0,0.5],[1,0.5]];portConstraint=eastwest;" parent="96" vertex="1">
                    <mxGeometry y="96" width="120" height="28" as="geometry"/>
                </mxCell>
                <mxCell id="102" value="&amp;nbsp; password" style="shape=partialRectangle;html=1;whiteSpace=wrap;connectable=0;overflow=hidden;top=0;left=0;bottom=0;right=0;pointerEvents=1;fillColor=#6a00ff;fontColor=#ffffff;strokeColor=#3700CC;align=left;" parent="101" vertex="1">
                    <mxGeometry width="120" height="28" as="geometry">
                        <mxRectangle width="120" height="28" as="alternateBounds"/>
                    </mxGeometry>
                </mxCell>
                <mxCell id="103" value="" style="shape=tableRow;horizontal=0;startSize=0;swimlaneHead=0;swimlaneBody=0;top=0;left=0;bottom=0;right=0;collapsible=0;dropTarget=0;fillColor=none;points=[[0,0.5],[1,0.5]];portConstraint=eastwest;" parent="96" vertex="1">
                    <mxGeometry y="124" width="120" height="28" as="geometry"/>
                </mxCell>
                <mxCell id="104" value="&amp;nbsp; username" style="shape=partialRectangle;html=1;whiteSpace=wrap;connectable=0;overflow=hidden;top=0;left=0;bottom=0;right=0;pointerEvents=1;fillColor=#6a00ff;fontColor=#ffffff;strokeColor=#3700CC;align=left;" parent="103" vertex="1">
                    <mxGeometry width="120" height="28" as="geometry">
                        <mxRectangle width="120" height="28" as="alternateBounds"/>
                    </mxGeometry>
                </mxCell>
                <mxCell id="105" value="" style="shape=tableRow;horizontal=0;startSize=0;swimlaneHead=0;swimlaneBody=0;top=0;left=0;bottom=0;right=0;collapsible=0;dropTarget=0;fillColor=none;points=[[0,0.5],[1,0.5]];portConstraint=eastwest;" parent="96" vertex="1">
                    <mxGeometry y="152" width="120" height="28" as="geometry"/>
                </mxCell>
                <mxCell id="106" value="&amp;nbsp; inscription_date" style="shape=partialRectangle;html=1;whiteSpace=wrap;connectable=0;overflow=hidden;top=0;left=0;bottom=0;right=0;pointerEvents=1;fillColor=#6a00ff;fontColor=#ffffff;strokeColor=#3700CC;align=left;" parent="105" vertex="1">
                    <mxGeometry width="120" height="28" as="geometry">
                        <mxRectangle width="120" height="28" as="alternateBounds"/>
                    </mxGeometry>
                </mxCell>
                <mxCell id="117" value="" style="shape=table;startSize=0;container=1;collapsible=0;childLayout=tableLayout;" parent="1" vertex="1">
                    <mxGeometry x="520" y="51" width="80" height="158" as="geometry"/>
                </mxCell>
                <mxCell id="118" value="" style="shape=tableRow;horizontal=0;startSize=0;swimlaneHead=0;swimlaneBody=0;top=0;left=0;bottom=0;right=0;collapsible=0;dropTarget=0;fillColor=none;points=[[0,0.5],[1,0.5]];portConstraint=eastwest;" parent="117" vertex="1">
                    <mxGeometry width="80" height="50" as="geometry"/>
                </mxCell>
                <mxCell id="119" value="Roles" style="shape=partialRectangle;html=1;whiteSpace=wrap;connectable=0;overflow=hidden;fillColor=none;top=0;left=0;bottom=0;right=0;pointerEvents=1;" parent="118" vertex="1">
                    <mxGeometry width="80" height="50" as="geometry">
                        <mxRectangle width="80" height="50" as="alternateBounds"/>
                    </mxGeometry>
                </mxCell>
                <mxCell id="120" value="" style="shape=tableRow;horizontal=0;startSize=0;swimlaneHead=0;swimlaneBody=0;top=0;left=0;bottom=0;right=0;collapsible=0;dropTarget=0;fillColor=none;points=[[0,0.5],[1,0.5]];portConstraint=eastwest;" parent="117" vertex="1">
                    <mxGeometry y="50" width="80" height="54" as="geometry"/>
                </mxCell>
                <mxCell id="121" value="&amp;nbsp; id" style="shape=partialRectangle;html=1;whiteSpace=wrap;connectable=0;overflow=hidden;fillColor=#e51400;top=0;left=0;bottom=0;right=0;pointerEvents=1;fontColor=#ffffff;strokeColor=#B20000;align=left;" parent="120" vertex="1">
                    <mxGeometry width="80" height="54" as="geometry">
                        <mxRectangle width="80" height="54" as="alternateBounds"/>
                    </mxGeometry>
                </mxCell>
                <mxCell id="122" value="" style="shape=tableRow;horizontal=0;startSize=0;swimlaneHead=0;swimlaneBody=0;top=0;left=0;bottom=0;right=0;collapsible=0;dropTarget=0;fillColor=none;points=[[0,0.5],[1,0.5]];portConstraint=eastwest;" parent="117" vertex="1">
                    <mxGeometry y="104" width="80" height="54" as="geometry"/>
                </mxCell>
                <mxCell id="123" value="&amp;nbsp; rights" style="shape=partialRectangle;html=1;whiteSpace=wrap;connectable=0;overflow=hidden;fillColor=#e51400;top=0;left=0;bottom=0;right=0;pointerEvents=1;fontColor=#ffffff;strokeColor=#B20000;align=left;" parent="122" vertex="1">
                    <mxGeometry width="80" height="54" as="geometry">
                        <mxRectangle width="80" height="54" as="alternateBounds"/>
                    </mxGeometry>
                </mxCell>
                <mxCell id="125" value="" style="shape=table;startSize=0;container=1;collapsible=0;childLayout=tableLayout;" parent="1" vertex="1">
                    <mxGeometry x="520" y="390" width="80" height="158" as="geometry"/>
                </mxCell>
                <mxCell id="126" value="" style="shape=tableRow;horizontal=0;startSize=0;swimlaneHead=0;swimlaneBody=0;top=0;left=0;bottom=0;right=0;collapsible=0;dropTarget=0;fillColor=none;points=[[0,0.5],[1,0.5]];portConstraint=eastwest;" parent="125" vertex="1">
                    <mxGeometry width="80" height="50" as="geometry"/>
                </mxCell>
                <mxCell id="127" value="Categories" style="shape=partialRectangle;html=1;whiteSpace=wrap;connectable=0;overflow=hidden;fillColor=none;top=0;left=0;bottom=0;right=0;pointerEvents=1;" parent="126" vertex="1">
                    <mxGeometry width="80" height="50" as="geometry">
                        <mxRectangle width="80" height="50" as="alternateBounds"/>
                    </mxGeometry>
                </mxCell>
                <mxCell id="128" value="" style="shape=tableRow;horizontal=0;startSize=0;swimlaneHead=0;swimlaneBody=0;top=0;left=0;bottom=0;right=0;collapsible=0;dropTarget=0;fillColor=none;points=[[0,0.5],[1,0.5]];portConstraint=eastwest;" parent="125" vertex="1">
                    <mxGeometry y="50" width="80" height="54" as="geometry"/>
                </mxCell>
                <mxCell id="129" value="&amp;nbsp; id" style="shape=partialRectangle;html=1;whiteSpace=wrap;connectable=0;overflow=hidden;fillColor=#1ba1e2;top=0;left=0;bottom=0;right=0;pointerEvents=1;fontColor=#ffffff;strokeColor=#006EAF;align=left;" parent="128" vertex="1">
                    <mxGeometry width="80" height="54" as="geometry">
                        <mxRectangle width="80" height="54" as="alternateBounds"/>
                    </mxGeometry>
                </mxCell>
                <mxCell id="130" value="" style="shape=tableRow;horizontal=0;startSize=0;swimlaneHead=0;swimlaneBody=0;top=0;left=0;bottom=0;right=0;collapsible=0;dropTarget=0;fillColor=none;points=[[0,0.5],[1,0.5]];portConstraint=eastwest;" parent="125" vertex="1">
                    <mxGeometry y="104" width="80" height="54" as="geometry"/>
                </mxCell>
                <mxCell id="131" value="&amp;nbsp; name" style="shape=partialRectangle;html=1;whiteSpace=wrap;connectable=0;overflow=hidden;fillColor=#1ba1e2;top=0;left=0;bottom=0;right=0;pointerEvents=1;fontColor=#ffffff;strokeColor=#006EAF;align=left;" parent="130" vertex="1">
                    <mxGeometry width="80" height="54" as="geometry">
                        <mxRectangle width="80" height="54" as="alternateBounds"/>
                    </mxGeometry>
                </mxCell>
                <mxCell id="163" style="edgeStyle=orthogonalEdgeStyle;shape=link;html=1;exitX=1;exitY=0.25;exitDx=0;exitDy=0;entryX=0;entryY=0.5;entryDx=0;entryDy=0;" parent="1" source="132" target="150" edge="1">
                    <mxGeometry relative="1" as="geometry"/>
                </mxCell>
                <mxCell id="132" value="Article" style="shape=table;startSize=40;container=1;collapsible=0;childLayout=tableLayout;" parent="1" vertex="1">
                    <mxGeometry x="40" y="360" width="120" height="180" as="geometry"/>
                </mxCell>
                <mxCell id="133" value="" style="shape=tableRow;horizontal=0;startSize=0;swimlaneHead=0;swimlaneBody=0;top=0;left=0;bottom=0;right=0;collapsible=0;dropTarget=0;fillColor=none;points=[[0,0.5],[1,0.5]];portConstraint=eastwest;" parent="132" vertex="1">
                    <mxGeometry y="40" width="120" height="28" as="geometry"/>
                </mxCell>
                <mxCell id="134" value="&amp;nbsp; id" style="shape=partialRectangle;html=1;whiteSpace=wrap;connectable=0;overflow=hidden;top=0;left=0;bottom=0;right=0;pointerEvents=1;fillColor=#e3c800;fontColor=#F0F0F0;strokeColor=#B09500;align=left;" parent="133" vertex="1">
                    <mxGeometry width="120" height="28" as="geometry">
                        <mxRectangle width="120" height="28" as="alternateBounds"/>
                    </mxGeometry>
                </mxCell>
                <mxCell id="135" value="" style="shape=tableRow;horizontal=0;startSize=0;swimlaneHead=0;swimlaneBody=0;top=0;left=0;bottom=0;right=0;collapsible=0;dropTarget=0;fillColor=none;points=[[0,0.5],[1,0.5]];portConstraint=eastwest;" parent="132" vertex="1">
                    <mxGeometry y="68" width="120" height="28" as="geometry"/>
                </mxCell>
                <mxCell id="136" value="&amp;nbsp; title" style="shape=partialRectangle;html=1;whiteSpace=wrap;connectable=0;overflow=hidden;top=0;left=0;bottom=0;right=0;pointerEvents=1;fillColor=#e3c800;fontColor=#F0F0F0;strokeColor=#B09500;align=left;" parent="135" vertex="1">
                    <mxGeometry width="120" height="28" as="geometry">
                        <mxRectangle width="120" height="28" as="alternateBounds"/>
                    </mxGeometry>
                </mxCell>
                <mxCell id="137" value="" style="shape=tableRow;horizontal=0;startSize=0;swimlaneHead=0;swimlaneBody=0;top=0;left=0;bottom=0;right=0;collapsible=0;dropTarget=0;fillColor=none;points=[[0,0.5],[1,0.5]];portConstraint=eastwest;" parent="132" vertex="1">
                    <mxGeometry y="96" width="120" height="28" as="geometry"/>
                </mxCell>
                <mxCell id="138" value="&amp;nbsp; content" style="shape=partialRectangle;html=1;whiteSpace=wrap;connectable=0;overflow=hidden;top=0;left=0;bottom=0;right=0;pointerEvents=1;fillColor=#e3c800;fontColor=#F0F0F0;strokeColor=#B09500;align=left;" parent="137" vertex="1">
                    <mxGeometry width="120" height="28" as="geometry">
                        <mxRectangle width="120" height="28" as="alternateBounds"/>
                    </mxGeometry>
                </mxCell>
                <mxCell id="141" value="" style="shape=tableRow;horizontal=0;startSize=0;swimlaneHead=0;swimlaneBody=0;top=0;left=0;bottom=0;right=0;collapsible=0;dropTarget=0;fillColor=none;points=[[0,0.5],[1,0.5]];portConstraint=eastwest;" parent="132" vertex="1">
                    <mxGeometry y="124" width="120" height="28" as="geometry"/>
                </mxCell>
                <mxCell id="142" value="&amp;nbsp; creation_date" style="shape=partialRectangle;html=1;whiteSpace=wrap;connectable=0;overflow=hidden;top=0;left=0;bottom=0;right=0;pointerEvents=1;fillColor=#e3c800;fontColor=#F0F0F0;strokeColor=#B09500;align=left;" parent="141" vertex="1">
                    <mxGeometry width="120" height="28" as="geometry">
                        <mxRectangle width="120" height="28" as="alternateBounds"/>
                    </mxGeometry>
                </mxCell>
                <mxCell id="139" value="" style="shape=tableRow;horizontal=0;startSize=0;swimlaneHead=0;swimlaneBody=0;top=0;left=0;bottom=0;right=0;collapsible=0;dropTarget=0;fillColor=none;points=[[0,0.5],[1,0.5]];portConstraint=eastwest;" parent="132" vertex="1">
                    <mxGeometry y="152" width="120" height="28" as="geometry"/>
                </mxCell>
                <mxCell id="140" value="&amp;nbsp; edit_date" style="shape=partialRectangle;html=1;whiteSpace=wrap;connectable=0;overflow=hidden;top=0;left=0;bottom=0;right=0;pointerEvents=1;fillColor=#e3c800;fontColor=#F0F0F0;strokeColor=#B09500;align=left;" parent="139" vertex="1">
                    <mxGeometry width="120" height="28" as="geometry">
                        <mxRectangle width="120" height="28" as="alternateBounds"/>
                    </mxGeometry>
                </mxCell>
                <mxCell id="143" value="Comments" style="shape=table;startSize=40;container=1;collapsible=0;childLayout=tableLayout;" parent="1" vertex="1">
                    <mxGeometry x="360" y="208" width="120" height="152" as="geometry"/>
                </mxCell>
                <mxCell id="144" value="" style="shape=tableRow;horizontal=0;startSize=0;swimlaneHead=0;swimlaneBody=0;top=0;left=0;bottom=0;right=0;collapsible=0;dropTarget=0;fillColor=#60a917;points=[[0,0.5],[1,0.5]];portConstraint=eastwest;fontColor=#ffffff;strokeColor=#2D7600;" parent="143" vertex="1">
                    <mxGeometry y="40" width="120" height="28" as="geometry"/>
                </mxCell>
                <mxCell id="145" value="&amp;nbsp; id" style="shape=partialRectangle;html=1;whiteSpace=wrap;connectable=0;overflow=hidden;top=0;left=0;bottom=0;right=0;pointerEvents=1;fillColor=#008a00;fontColor=#ffffff;strokeColor=#005700;align=left;" parent="144" vertex="1">
                    <mxGeometry width="120" height="28" as="geometry">
                        <mxRectangle width="120" height="28" as="alternateBounds"/>
                    </mxGeometry>
                </mxCell>
                <mxCell id="146" value="" style="shape=tableRow;horizontal=0;startSize=0;swimlaneHead=0;swimlaneBody=0;top=0;left=0;bottom=0;right=0;collapsible=0;dropTarget=0;fillColor=none;points=[[0,0.5],[1,0.5]];portConstraint=eastwest;" parent="143" vertex="1">
                    <mxGeometry y="68" width="120" height="28" as="geometry"/>
                </mxCell>
                <mxCell id="147" value="&amp;nbsp; content" style="shape=partialRectangle;html=1;whiteSpace=wrap;connectable=0;overflow=hidden;top=0;left=0;bottom=0;right=0;pointerEvents=1;fillColor=#008a00;fontColor=#ffffff;strokeColor=#005700;align=left;" parent="146" vertex="1">
                    <mxGeometry width="120" height="28" as="geometry">
                        <mxRectangle width="120" height="28" as="alternateBounds"/>
                    </mxGeometry>
                </mxCell>
                <mxCell id="150" value="" style="shape=tableRow;horizontal=0;startSize=0;swimlaneHead=0;swimlaneBody=0;top=0;left=0;bottom=0;right=0;collapsible=0;dropTarget=0;fillColor=none;points=[[0,0.5],[1,0.5]];portConstraint=eastwest;" parent="143" vertex="1">
                    <mxGeometry y="96" width="120" height="28" as="geometry"/>
                </mxCell>
                <mxCell id="151" value="&amp;nbsp; creation_date" style="shape=partialRectangle;html=1;whiteSpace=wrap;connectable=0;overflow=hidden;top=0;left=0;bottom=0;right=0;pointerEvents=1;fillColor=#008a00;fontColor=#ffffff;strokeColor=#005700;align=left;" parent="150" vertex="1">
                    <mxGeometry width="120" height="28" as="geometry">
                        <mxRectangle width="120" height="28" as="alternateBounds"/>
                    </mxGeometry>
                </mxCell>
                <mxCell id="148" value="" style="shape=tableRow;horizontal=0;startSize=0;swimlaneHead=0;swimlaneBody=0;top=0;left=0;bottom=0;right=0;collapsible=0;dropTarget=0;fillColor=none;points=[[0,0.5],[1,0.5]];portConstraint=eastwest;" parent="143" vertex="1">
                    <mxGeometry y="124" width="120" height="28" as="geometry"/>
                </mxCell>
                <mxCell id="149" value="&amp;nbsp; edit_date" style="shape=partialRectangle;html=1;whiteSpace=wrap;connectable=0;overflow=hidden;top=0;left=0;bottom=0;right=0;pointerEvents=1;fillColor=#008a00;fontColor=#ffffff;strokeColor=#005700;align=left;" parent="148" vertex="1">
                    <mxGeometry width="120" height="28" as="geometry">
                        <mxRectangle width="120" height="28" as="alternateBounds"/>
                    </mxGeometry>
                </mxCell>
                <mxCell id="156" style="edgeStyle=none;shape=link;html=1;startArrow=none;" parent="1" source="158" target="128" edge="1">
                    <mxGeometry relative="1" as="geometry"/>
                </mxCell>
                <mxCell id="157" value="Is assigned" style="ellipse;whiteSpace=wrap;html=1;fillColor=#f5f5f5;fontColor=#333333;strokeColor=#666666;" parent="1" vertex="1">
                    <mxGeometry x="290" y="90" width="120" height="80" as="geometry"/>
                </mxCell>
                <mxCell id="159" value="" style="edgeStyle=none;shape=link;html=1;endArrow=none;" parent="1" source="137" target="158" edge="1">
                    <mxGeometry relative="1" as="geometry">
                        <mxPoint x="160" y="469.608695652174" as="sourcePoint"/>
                        <mxPoint x="520" y="467.2608695652175" as="targetPoint"/>
                    </mxGeometry>
                </mxCell>
                <mxCell id="158" value="Is assigned" style="ellipse;whiteSpace=wrap;html=1;fillColor=#f5f5f5;fontColor=#333333;strokeColor=#666666;" parent="1" vertex="1">
                    <mxGeometry x="290" y="427" width="120" height="80" as="geometry"/>
                </mxCell>
                <mxCell id="161" value="Has" style="ellipse;whiteSpace=wrap;html=1;fillColor=#f5f5f5;fontColor=#333333;strokeColor=#666666;" parent="1" vertex="1">
                    <mxGeometry x="220" y="340" width="80" height="50" as="geometry"/>
                </mxCell>
                <mxCell id="162" style="edgeStyle=orthogonalEdgeStyle;shape=link;html=1;exitX=1;exitY=0.5;exitDx=0;exitDy=0;entryX=0;entryY=0.5;entryDx=0;entryDy=0;" parent="1" source="105" target="146" edge="1">
                    <mxGeometry relative="1" as="geometry"/>
                </mxCell>
                <mxCell id="168" value="1, 1" style="rounded=1;whiteSpace=wrap;html=1;" parent="1" vertex="1">
                    <mxGeometry x="170" y="487" width="40" height="20" as="geometry"/>
                </mxCell>
                <mxCell id="170" value="0 , N" style="rounded=1;whiteSpace=wrap;html=1;" parent="1" vertex="1">
                    <mxGeometry x="170" y="170" width="40" height="20" as="geometry"/>
                </mxCell>
                <mxCell id="171" value="1 , 1" style="rounded=1;whiteSpace=wrap;html=1;" parent="1" vertex="1">
                    <mxGeometry x="310" y="250" width="40" height="20" as="geometry"/>
                </mxCell>
                <mxCell id="172" value="1 , 1" style="rounded=1;whiteSpace=wrap;html=1;" parent="1" vertex="1">
                    <mxGeometry x="310" y="330" width="40" height="20" as="geometry"/>
                </mxCell>
                <mxCell id="173" value="0 , N" style="rounded=1;whiteSpace=wrap;html=1;" parent="1" vertex="1">
                    <mxGeometry x="170" y="370" width="40" height="20" as="geometry"/>
                </mxCell>
                <mxCell id="174" value="0 , N" style="rounded=1;whiteSpace=wrap;html=1;" parent="1" vertex="1">
                    <mxGeometry x="470" y="487" width="40" height="20" as="geometry"/>
                </mxCell>
                <mxCell id="175" value="0 , N" style="rounded=1;whiteSpace=wrap;html=1;" parent="1" vertex="1">
                    <mxGeometry x="470" y="90" width="40" height="20" as="geometry"/>
                </mxCell>
                <mxCell id="176" value="1 , 1" style="rounded=1;whiteSpace=wrap;html=1;" parent="1" vertex="1">
                    <mxGeometry x="170" y="90" width="40" height="20" as="geometry"/>
                </mxCell>
                <mxCell id="177" value="0 , N" style="rounded=1;whiteSpace=wrap;html=1;" parent="1" vertex="1">
                    <mxGeometry x="50" y="230" width="40" height="20" as="geometry"/>
                </mxCell>
                <mxCell id="178" value="1 ,1" style="rounded=1;whiteSpace=wrap;html=1;" parent="1" vertex="1">
                    <mxGeometry x="50" y="330" width="40" height="20" as="geometry"/>
                </mxCell>
                <mxCell id="180" value="Writes" style="ellipse;whiteSpace=wrap;html=1;fillColor=#f5f5f5;fontColor=#333333;strokeColor=#666666;" parent="1" vertex="1">
                    <mxGeometry x="60" y="263" width="80" height="50" as="geometry"/>
                </mxCell>
                <mxCell id="182" value="Writes" style="ellipse;whiteSpace=wrap;html=1;fillColor=#f5f5f5;fontColor=#333333;strokeColor=#666666;" parent="1" vertex="1">
                    <mxGeometry x="220" y="220" width="80" height="50" as="geometry"/>
                </mxCell>
                <mxCell id="183" value="MCD" style="shape=process;whiteSpace=wrap;html=1;backgroundOutline=1;fillColor=#647687;strokeColor=#314354;fontColor=#ffffff;" parent="1" vertex="1">
                    <mxGeometry x="300" y="11" width="80" height="40" as="geometry"/>
                </mxCell>
                <mxCell id="184" value="MPD" style="shape=process;whiteSpace=wrap;html=1;backgroundOutline=1;fillColor=#647687;strokeColor=#314354;fontColor=#ffffff;" parent="1" vertex="1">
                    <mxGeometry x="360" y="660" width="80" height="40" as="geometry"/>
                </mxCell>
                <mxCell id="193" value="" style="rounded=0;whiteSpace=wrap;html=1;" parent="1" vertex="1">
                    <mxGeometry x="10" y="590" width="810" height="60" as="geometry"/>
                </mxCell>
                <mxCell id="196" value="User" style="shape=table;startSize=40;container=1;collapsible=0;childLayout=tableLayout;" parent="1" vertex="1">
                    <mxGeometry x="40" y="720" width="240" height="210" as="geometry"/>
                </mxCell>
                <mxCell id="197" value="" style="shape=tableRow;horizontal=0;startSize=0;swimlaneHead=0;swimlaneBody=0;top=0;left=0;bottom=0;right=0;collapsible=0;dropTarget=0;fillColor=none;points=[[0,0.5],[1,0.5]];portConstraint=eastwest;" parent="196" vertex="1">
                    <mxGeometry y="40" width="240" height="28" as="geometry"/>
                </mxCell>
                <mxCell id="198" value="&amp;nbsp; id" style="shape=partialRectangle;html=1;whiteSpace=wrap;connectable=0;overflow=hidden;top=0;left=0;bottom=0;right=0;pointerEvents=1;fillColor=#6a00ff;fontColor=#ffffff;strokeColor=#3700CC;align=left;" parent="197" vertex="1">
                    <mxGeometry width="120" height="28" as="geometry">
                        <mxRectangle width="120" height="28" as="alternateBounds"/>
                    </mxGeometry>
                </mxCell>
                <mxCell id="328" value="&amp;nbsp; INT" style="shape=partialRectangle;html=1;whiteSpace=wrap;connectable=0;overflow=hidden;top=0;left=0;bottom=0;right=0;pointerEvents=1;fillColor=#6a00ff;fontColor=#ffffff;strokeColor=#3700CC;align=left;" parent="197" vertex="1">
                    <mxGeometry x="120" width="120" height="28" as="geometry">
                        <mxRectangle width="120" height="28" as="alternateBounds"/>
                    </mxGeometry>
                </mxCell>
                <mxCell id="201" value="" style="shape=tableRow;horizontal=0;startSize=0;swimlaneHead=0;swimlaneBody=0;top=0;left=0;bottom=0;right=0;collapsible=0;dropTarget=0;fillColor=none;points=[[0,0.5],[1,0.5]];portConstraint=eastwest;" parent="196" vertex="1">
                    <mxGeometry y="68" width="240" height="29" as="geometry"/>
                </mxCell>
                <mxCell id="202" value="&amp;nbsp; password" style="shape=partialRectangle;html=1;whiteSpace=wrap;connectable=0;overflow=hidden;top=0;left=0;bottom=0;right=0;pointerEvents=1;fillColor=#6a00ff;fontColor=#ffffff;strokeColor=#3700CC;align=left;" parent="201" vertex="1">
                    <mxGeometry width="120" height="29" as="geometry">
                        <mxRectangle width="120" height="29" as="alternateBounds"/>
                    </mxGeometry>
                </mxCell>
                <mxCell id="329" value="&amp;nbsp; VARCHAR (255)" style="shape=partialRectangle;html=1;whiteSpace=wrap;connectable=0;overflow=hidden;top=0;left=0;bottom=0;right=0;pointerEvents=1;fillColor=#6a00ff;fontColor=#ffffff;strokeColor=#3700CC;align=left;" parent="201" vertex="1">
                    <mxGeometry x="120" width="120" height="29" as="geometry">
                        <mxRectangle width="120" height="29" as="alternateBounds"/>
                    </mxGeometry>
                </mxCell>
                <mxCell id="203" value="" style="shape=tableRow;horizontal=0;startSize=0;swimlaneHead=0;swimlaneBody=0;top=0;left=0;bottom=0;right=0;collapsible=0;dropTarget=0;fillColor=none;points=[[0,0.5],[1,0.5]];portConstraint=eastwest;" parent="196" vertex="1">
                    <mxGeometry y="97" width="240" height="28" as="geometry"/>
                </mxCell>
                <mxCell id="204" value="&amp;nbsp; username" style="shape=partialRectangle;html=1;whiteSpace=wrap;connectable=0;overflow=hidden;top=0;left=0;bottom=0;right=0;pointerEvents=1;fillColor=#6a00ff;fontColor=#ffffff;strokeColor=#3700CC;align=left;" parent="203" vertex="1">
                    <mxGeometry width="120" height="28" as="geometry">
                        <mxRectangle width="120" height="28" as="alternateBounds"/>
                    </mxGeometry>
                </mxCell>
                <mxCell id="330" value="&amp;nbsp; VARCHAR (255)" style="shape=partialRectangle;html=1;whiteSpace=wrap;connectable=0;overflow=hidden;top=0;left=0;bottom=0;right=0;pointerEvents=1;fillColor=#6a00ff;fontColor=#ffffff;strokeColor=#3700CC;align=left;" parent="203" vertex="1">
                    <mxGeometry x="120" width="120" height="28" as="geometry">
                        <mxRectangle width="120" height="28" as="alternateBounds"/>
                    </mxGeometry>
                </mxCell>
                <mxCell id="199" value="" style="shape=tableRow;horizontal=0;startSize=0;swimlaneHead=0;swimlaneBody=0;top=0;left=0;bottom=0;right=0;collapsible=0;dropTarget=0;fillColor=none;points=[[0,0.5],[1,0.5]];portConstraint=eastwest;align=left;" parent="196" vertex="1">
                    <mxGeometry y="125" width="240" height="28" as="geometry"/>
                </mxCell>
                <mxCell id="200" value="&amp;nbsp; email" style="shape=partialRectangle;html=1;whiteSpace=wrap;connectable=0;overflow=hidden;top=0;left=0;bottom=0;right=0;pointerEvents=1;fillColor=#6a00ff;fontColor=#ffffff;strokeColor=#3700CC;align=left;" parent="199" vertex="1">
                    <mxGeometry width="120" height="28" as="geometry">
                        <mxRectangle width="120" height="28" as="alternateBounds"/>
                    </mxGeometry>
                </mxCell>
                <mxCell id="331" value="&amp;nbsp; VARCHAR (255)" style="shape=partialRectangle;html=1;whiteSpace=wrap;connectable=0;overflow=hidden;top=0;left=0;bottom=0;right=0;pointerEvents=1;fillColor=#6a00ff;fontColor=#ffffff;strokeColor=#3700CC;align=left;" parent="199" vertex="1">
                    <mxGeometry x="120" width="120" height="28" as="geometry">
                        <mxRectangle width="120" height="28" as="alternateBounds"/>
                    </mxGeometry>
                </mxCell>
                <mxCell id="205" value="" style="shape=tableRow;horizontal=0;startSize=0;swimlaneHead=0;swimlaneBody=0;top=0;left=0;bottom=0;right=0;collapsible=0;dropTarget=0;fillColor=none;points=[[0,0.5],[1,0.5]];portConstraint=eastwest;" parent="196" vertex="1">
                    <mxGeometry y="153" width="240" height="29" as="geometry"/>
                </mxCell>
                <mxCell id="206" value="&amp;nbsp; register_date" style="shape=partialRectangle;html=1;whiteSpace=wrap;connectable=0;overflow=hidden;top=0;left=0;bottom=0;right=0;pointerEvents=1;fillColor=#6a00ff;fontColor=#ffffff;strokeColor=#3700CC;align=left;" parent="205" vertex="1">
                    <mxGeometry width="120" height="29" as="geometry">
                        <mxRectangle width="120" height="29" as="alternateBounds"/>
                    </mxGeometry>
                </mxCell>
                <mxCell id="332" value="&amp;nbsp; DATETIME" style="shape=partialRectangle;html=1;whiteSpace=wrap;connectable=0;overflow=hidden;top=0;left=0;bottom=0;right=0;pointerEvents=1;fillColor=#6a00ff;fontColor=#ffffff;strokeColor=#3700CC;align=left;" parent="205" vertex="1">
                    <mxGeometry x="120" width="120" height="29" as="geometry">
                        <mxRectangle width="120" height="29" as="alternateBounds"/>
                    </mxGeometry>
                </mxCell>
                <mxCell id="287" style="shape=tableRow;horizontal=0;startSize=0;swimlaneHead=0;swimlaneBody=0;top=0;left=0;bottom=0;right=0;collapsible=0;dropTarget=0;fillColor=none;points=[[0,0.5],[1,0.5]];portConstraint=eastwest;" parent="196" vertex="1">
                    <mxGeometry y="182" width="240" height="28" as="geometry"/>
                </mxCell>
                <mxCell id="288" value="&amp;nbsp; role_id" style="shape=partialRectangle;html=1;whiteSpace=wrap;connectable=0;overflow=hidden;top=0;left=0;bottom=0;right=0;pointerEvents=1;fillColor=#6a00ff;fontColor=#ffffff;strokeColor=#3700CC;align=left;" parent="287" vertex="1">
                    <mxGeometry width="120" height="28" as="geometry">
                        <mxRectangle width="120" height="28" as="alternateBounds"/>
                    </mxGeometry>
                </mxCell>
                <mxCell id="333" value="&amp;nbsp; INT" style="shape=partialRectangle;html=1;whiteSpace=wrap;connectable=0;overflow=hidden;top=0;left=0;bottom=0;right=0;pointerEvents=1;fillColor=#6a00ff;fontColor=#ffffff;strokeColor=#3700CC;align=left;" parent="287" vertex="1">
                    <mxGeometry x="120" width="120" height="28" as="geometry">
                        <mxRectangle width="120" height="28" as="alternateBounds"/>
                    </mxGeometry>
                </mxCell>
                <mxCell id="207" value="Role" style="shape=table;startSize=50;container=1;collapsible=0;childLayout=tableLayout;" parent="1" vertex="1">
                    <mxGeometry x="520" y="725" width="160" height="186" as="geometry"/>
                </mxCell>
                <mxCell id="210" value="" style="shape=tableRow;horizontal=0;startSize=0;swimlaneHead=0;swimlaneBody=0;top=0;left=0;bottom=0;right=0;collapsible=0;dropTarget=0;fillColor=none;points=[[0,0.5],[1,0.5]];portConstraint=eastwest;" parent="207" vertex="1">
                    <mxGeometry y="50" width="160" height="44" as="geometry"/>
                </mxCell>
                <mxCell id="211" value="&amp;nbsp; id" style="shape=partialRectangle;html=1;whiteSpace=wrap;connectable=0;overflow=hidden;fillColor=#e51400;top=0;left=0;bottom=0;right=0;pointerEvents=1;fontColor=#ffffff;strokeColor=#B20000;align=left;" parent="210" vertex="1">
                    <mxGeometry width="80" height="44" as="geometry">
                        <mxRectangle width="80" height="44" as="alternateBounds"/>
                    </mxGeometry>
                </mxCell>
                <mxCell id="365" value="&amp;nbsp; INT" style="shape=partialRectangle;html=1;whiteSpace=wrap;connectable=0;overflow=hidden;fillColor=#e51400;top=0;left=0;bottom=0;right=0;pointerEvents=1;fontColor=#ffffff;strokeColor=#B20000;align=left;" parent="210" vertex="1">
                    <mxGeometry x="80" width="80" height="44" as="geometry">
                        <mxRectangle width="80" height="44" as="alternateBounds"/>
                    </mxGeometry>
                </mxCell>
                <mxCell id="212" value="" style="shape=tableRow;horizontal=0;startSize=0;swimlaneHead=0;swimlaneBody=0;top=0;left=0;bottom=0;right=0;collapsible=0;dropTarget=0;fillColor=none;points=[[0,0.5],[1,0.5]];portConstraint=eastwest;" parent="207" vertex="1">
                    <mxGeometry y="94" width="160" height="46" as="geometry"/>
                </mxCell>
                <mxCell id="213" value="&amp;nbsp; rights" style="shape=partialRectangle;html=1;whiteSpace=wrap;connectable=0;overflow=hidden;fillColor=#e51400;top=0;left=0;bottom=0;right=0;pointerEvents=1;fontColor=#ffffff;strokeColor=#B20000;align=left;" parent="212" vertex="1">
                    <mxGeometry width="80" height="46" as="geometry">
                        <mxRectangle width="80" height="46" as="alternateBounds"/>
                    </mxGeometry>
                </mxCell>
                <mxCell id="366" value="&amp;nbsp; VARCHAR&amp;nbsp; &amp;nbsp; &amp;nbsp; (255)" style="shape=partialRectangle;html=1;whiteSpace=wrap;connectable=0;overflow=hidden;fillColor=#e51400;top=0;left=0;bottom=0;right=0;pointerEvents=1;fontColor=#ffffff;strokeColor=#B20000;align=left;" parent="212" vertex="1">
                    <mxGeometry x="80" width="80" height="46" as="geometry">
                        <mxRectangle width="80" height="46" as="alternateBounds"/>
                    </mxGeometry>
                </mxCell>
                <mxCell id="450" style="shape=tableRow;horizontal=0;startSize=0;swimlaneHead=0;swimlaneBody=0;top=0;left=0;bottom=0;right=0;collapsible=0;dropTarget=0;fillColor=none;points=[[0,0.5],[1,0.5]];portConstraint=eastwest;" parent="207" vertex="1">
                    <mxGeometry y="140" width="160" height="46" as="geometry"/>
                </mxCell>
                <mxCell id="451" value="&amp;nbsp; description" style="shape=partialRectangle;html=1;whiteSpace=wrap;connectable=0;overflow=hidden;fillColor=#e51400;top=0;left=0;bottom=0;right=0;pointerEvents=1;fontColor=#ffffff;strokeColor=#B20000;align=left;" parent="450" vertex="1">
                    <mxGeometry width="80" height="46" as="geometry">
                        <mxRectangle width="80" height="46" as="alternateBounds"/>
                    </mxGeometry>
                </mxCell>
                <mxCell id="452" value="&amp;nbsp; VARCHAR&amp;nbsp; &amp;nbsp; &amp;nbsp; (255)" style="shape=partialRectangle;html=1;whiteSpace=wrap;connectable=0;overflow=hidden;fillColor=#e51400;top=0;left=0;bottom=0;right=0;pointerEvents=1;fontColor=#ffffff;strokeColor=#B20000;align=left;" parent="450" vertex="1">
                    <mxGeometry x="80" width="80" height="46" as="geometry">
                        <mxRectangle width="80" height="46" as="alternateBounds"/>
                    </mxGeometry>
                </mxCell>
                <mxCell id="214" value="Categories" style="shape=table;startSize=52;container=1;collapsible=0;childLayout=tableLayout;" parent="1" vertex="1">
                    <mxGeometry x="520" y="1160" width="160" height="213" as="geometry"/>
                </mxCell>
                <mxCell id="217" value="" style="shape=tableRow;horizontal=0;startSize=0;swimlaneHead=0;swimlaneBody=0;top=0;left=0;bottom=0;right=0;collapsible=0;dropTarget=0;fillColor=none;points=[[0,0.5],[1,0.5]];portConstraint=eastwest;" parent="214" vertex="1">
                    <mxGeometry y="52" width="160" height="55" as="geometry"/>
                </mxCell>
                <mxCell id="218" value="&amp;nbsp; id" style="shape=partialRectangle;html=1;whiteSpace=wrap;connectable=0;overflow=hidden;fillColor=#1ba1e2;top=0;left=0;bottom=0;right=0;pointerEvents=1;fontColor=#ffffff;strokeColor=#006EAF;align=left;" parent="217" vertex="1">
                    <mxGeometry width="80" height="55" as="geometry">
                        <mxRectangle width="80" height="55" as="alternateBounds"/>
                    </mxGeometry>
                </mxCell>
                <mxCell id="342" value="&amp;nbsp; INT" style="shape=partialRectangle;html=1;whiteSpace=wrap;connectable=0;overflow=hidden;fillColor=#1ba1e2;top=0;left=0;bottom=0;right=0;pointerEvents=1;fontColor=#ffffff;strokeColor=#006EAF;align=left;" parent="217" vertex="1">
                    <mxGeometry x="80" width="80" height="55" as="geometry">
                        <mxRectangle width="80" height="55" as="alternateBounds"/>
                    </mxGeometry>
                </mxCell>
                <mxCell id="219" value="" style="shape=tableRow;horizontal=0;startSize=0;swimlaneHead=0;swimlaneBody=0;top=0;left=0;bottom=0;right=0;collapsible=0;dropTarget=0;fillColor=none;points=[[0,0.5],[1,0.5]];portConstraint=eastwest;" parent="214" vertex="1">
                    <mxGeometry y="107" width="160" height="53" as="geometry"/>
                </mxCell>
                <mxCell id="220" value="&amp;nbsp; name" style="shape=partialRectangle;html=1;whiteSpace=wrap;connectable=0;overflow=hidden;fillColor=#1ba1e2;top=0;left=0;bottom=0;right=0;pointerEvents=1;fontColor=#ffffff;strokeColor=#006EAF;align=left;" parent="219" vertex="1">
                    <mxGeometry width="80" height="53" as="geometry">
                        <mxRectangle width="80" height="53" as="alternateBounds"/>
                    </mxGeometry>
                </mxCell>
                <mxCell id="343" value="&amp;nbsp; VARCHAR&amp;nbsp; &amp;nbsp; &amp;nbsp; (255)" style="shape=partialRectangle;html=1;whiteSpace=wrap;connectable=0;overflow=hidden;fillColor=#1ba1e2;top=0;left=0;bottom=0;right=0;pointerEvents=1;fontColor=#ffffff;strokeColor=#006EAF;align=left;" parent="219" vertex="1">
                    <mxGeometry x="80" width="80" height="53" as="geometry">
                        <mxRectangle width="80" height="53" as="alternateBounds"/>
                    </mxGeometry>
                </mxCell>
                <mxCell id="447" style="shape=tableRow;horizontal=0;startSize=0;swimlaneHead=0;swimlaneBody=0;top=0;left=0;bottom=0;right=0;collapsible=0;dropTarget=0;fillColor=none;points=[[0,0.5],[1,0.5]];portConstraint=eastwest;" parent="214" vertex="1">
                    <mxGeometry y="160" width="160" height="53" as="geometry"/>
                </mxCell>
                <mxCell id="448" value="&amp;nbsp; description" style="shape=partialRectangle;html=1;whiteSpace=wrap;connectable=0;overflow=hidden;fillColor=#1ba1e2;top=0;left=0;bottom=0;right=0;pointerEvents=1;fontColor=#ffffff;strokeColor=#006EAF;align=left;" parent="447" vertex="1">
                    <mxGeometry width="80" height="53" as="geometry">
                        <mxRectangle width="80" height="53" as="alternateBounds"/>
                    </mxGeometry>
                </mxCell>
                <mxCell id="449" value="&amp;nbsp; VARCHAR&amp;nbsp; &amp;nbsp; &amp;nbsp; (255)" style="shape=partialRectangle;html=1;whiteSpace=wrap;connectable=0;overflow=hidden;fillColor=#1ba1e2;top=0;left=0;bottom=0;right=0;pointerEvents=1;fontColor=#ffffff;strokeColor=#006EAF;align=left;" parent="447" vertex="1">
                    <mxGeometry x="80" width="80" height="53" as="geometry">
                        <mxRectangle width="80" height="53" as="alternateBounds"/>
                    </mxGeometry>
                </mxCell>
                <mxCell id="222" value="Article" style="shape=table;startSize=40;container=1;collapsible=0;childLayout=tableLayout;" parent="1" vertex="1">
                    <mxGeometry x="40" y="1080" width="240" height="240" as="geometry"/>
                </mxCell>
                <mxCell id="223" value="" style="shape=tableRow;horizontal=0;startSize=0;swimlaneHead=0;swimlaneBody=0;top=0;left=0;bottom=0;right=0;collapsible=0;dropTarget=0;fillColor=none;points=[[0,0.5],[1,0.5]];portConstraint=eastwest;" parent="222" vertex="1">
                    <mxGeometry y="40" width="240" height="29" as="geometry"/>
                </mxCell>
                <mxCell id="224" value="&amp;nbsp; id" style="shape=partialRectangle;html=1;whiteSpace=wrap;connectable=0;overflow=hidden;top=0;left=0;bottom=0;right=0;pointerEvents=1;fillColor=#e3c800;fontColor=#FFFFFF;strokeColor=#B09500;align=left;" parent="223" vertex="1">
                    <mxGeometry width="120" height="29" as="geometry">
                        <mxRectangle width="120" height="29" as="alternateBounds"/>
                    </mxGeometry>
                </mxCell>
                <mxCell id="354" value="&lt;span style=&quot;color: rgb(255, 255, 255);&quot;&gt;&amp;nbsp; INT&lt;/span&gt;" style="shape=partialRectangle;html=1;whiteSpace=wrap;connectable=0;overflow=hidden;top=0;left=0;bottom=0;right=0;pointerEvents=1;fillColor=#e3c800;fontColor=#000000;strokeColor=#B09500;align=left;" parent="223" vertex="1">
                    <mxGeometry x="120" width="120" height="29" as="geometry">
                        <mxRectangle width="120" height="29" as="alternateBounds"/>
                    </mxGeometry>
                </mxCell>
                <mxCell id="225" value="" style="shape=tableRow;horizontal=0;startSize=0;swimlaneHead=0;swimlaneBody=0;top=0;left=0;bottom=0;right=0;collapsible=0;dropTarget=0;fillColor=none;points=[[0,0.5],[1,0.5]];portConstraint=eastwest;" parent="222" vertex="1">
                    <mxGeometry y="69" width="240" height="28" as="geometry"/>
                </mxCell>
                <mxCell id="226" value="&amp;nbsp; title" style="shape=partialRectangle;html=1;whiteSpace=wrap;connectable=0;overflow=hidden;top=0;left=0;bottom=0;right=0;pointerEvents=1;fillColor=#e3c800;fontColor=#F0F0F0;strokeColor=#B09500;align=left;" parent="225" vertex="1">
                    <mxGeometry width="120" height="28" as="geometry">
                        <mxRectangle width="120" height="28" as="alternateBounds"/>
                    </mxGeometry>
                </mxCell>
                <mxCell id="355" value="&lt;span style=&quot;color: rgb(255, 255, 255);&quot;&gt;&amp;nbsp; VARCHAR (255)&lt;/span&gt;" style="shape=partialRectangle;html=1;whiteSpace=wrap;connectable=0;overflow=hidden;top=0;left=0;bottom=0;right=0;pointerEvents=1;fillColor=#e3c800;fontColor=#000000;strokeColor=#B09500;align=left;" parent="225" vertex="1">
                    <mxGeometry x="120" width="120" height="28" as="geometry">
                        <mxRectangle width="120" height="28" as="alternateBounds"/>
                    </mxGeometry>
                </mxCell>
                <mxCell id="227" value="" style="shape=tableRow;horizontal=0;startSize=0;swimlaneHead=0;swimlaneBody=0;top=0;left=0;bottom=0;right=0;collapsible=0;dropTarget=0;fillColor=none;points=[[0,0.5],[1,0.5]];portConstraint=eastwest;" parent="222" vertex="1">
                    <mxGeometry y="97" width="240" height="29" as="geometry"/>
                </mxCell>
                <mxCell id="228" value="&amp;nbsp; content" style="shape=partialRectangle;html=1;whiteSpace=wrap;connectable=0;overflow=hidden;top=0;left=0;bottom=0;right=0;pointerEvents=1;fillColor=#e3c800;fontColor=#FFFFFF;strokeColor=#B09500;align=left;" parent="227" vertex="1">
                    <mxGeometry width="120" height="29" as="geometry">
                        <mxRectangle width="120" height="29" as="alternateBounds"/>
                    </mxGeometry>
                </mxCell>
                <mxCell id="356" value="&lt;span style=&quot;color: rgb(255, 255, 255);&quot;&gt;&amp;nbsp; TEXT&lt;/span&gt;" style="shape=partialRectangle;html=1;whiteSpace=wrap;connectable=0;overflow=hidden;top=0;left=0;bottom=0;right=0;pointerEvents=1;fillColor=#e3c800;fontColor=#000000;strokeColor=#B09500;align=left;" parent="227" vertex="1">
                    <mxGeometry x="120" width="120" height="29" as="geometry">
                        <mxRectangle width="120" height="29" as="alternateBounds"/>
                    </mxGeometry>
                </mxCell>
                <mxCell id="229" value="" style="shape=tableRow;horizontal=0;startSize=0;swimlaneHead=0;swimlaneBody=0;top=0;left=0;bottom=0;right=0;collapsible=0;dropTarget=0;fillColor=none;points=[[0,0.5],[1,0.5]];portConstraint=eastwest;" parent="222" vertex="1">
                    <mxGeometry y="126" width="240" height="28" as="geometry"/>
                </mxCell>
                <mxCell id="230" value="&amp;nbsp; creation_date" style="shape=partialRectangle;html=1;whiteSpace=wrap;connectable=0;overflow=hidden;top=0;left=0;bottom=0;right=0;pointerEvents=1;fillColor=#e3c800;fontColor=#FFFFFF;strokeColor=#B09500;align=left;" parent="229" vertex="1">
                    <mxGeometry width="120" height="28" as="geometry">
                        <mxRectangle width="120" height="28" as="alternateBounds"/>
                    </mxGeometry>
                </mxCell>
                <mxCell id="357" value="&lt;span style=&quot;color: rgb(255, 255, 255);&quot;&gt;&amp;nbsp; DATETIME&lt;/span&gt;" style="shape=partialRectangle;html=1;whiteSpace=wrap;connectable=0;overflow=hidden;top=0;left=0;bottom=0;right=0;pointerEvents=1;fillColor=#e3c800;fontColor=#000000;strokeColor=#B09500;align=left;" parent="229" vertex="1">
                    <mxGeometry x="120" width="120" height="28" as="geometry">
                        <mxRectangle width="120" height="28" as="alternateBounds"/>
                    </mxGeometry>
                </mxCell>
                <mxCell id="231" value="" style="shape=tableRow;horizontal=0;startSize=0;swimlaneHead=0;swimlaneBody=0;top=0;left=0;bottom=0;right=0;collapsible=0;dropTarget=0;fillColor=none;points=[[0,0.5],[1,0.5]];portConstraint=eastwest;" parent="222" vertex="1">
                    <mxGeometry y="154" width="240" height="29" as="geometry"/>
                </mxCell>
                <mxCell id="232" value="&amp;nbsp; edit_date" style="shape=partialRectangle;html=1;whiteSpace=wrap;connectable=0;overflow=hidden;top=0;left=0;bottom=0;right=0;pointerEvents=1;fillColor=#e3c800;fontColor=#FFFFFF;strokeColor=#B09500;align=left;" parent="231" vertex="1">
                    <mxGeometry width="120" height="29" as="geometry">
                        <mxRectangle width="120" height="29" as="alternateBounds"/>
                    </mxGeometry>
                </mxCell>
                <mxCell id="358" value="&lt;span style=&quot;color: rgb(255, 255, 255);&quot;&gt;&amp;nbsp; DATETIME&lt;/span&gt;" style="shape=partialRectangle;html=1;whiteSpace=wrap;connectable=0;overflow=hidden;top=0;left=0;bottom=0;right=0;pointerEvents=1;fillColor=#e3c800;fontColor=#000000;strokeColor=#B09500;align=left;" parent="231" vertex="1">
                    <mxGeometry x="120" width="120" height="29" as="geometry">
                        <mxRectangle width="120" height="29" as="alternateBounds"/>
                    </mxGeometry>
                </mxCell>
                <mxCell id="306" value="" style="shape=tableRow;horizontal=0;startSize=0;swimlaneHead=0;swimlaneBody=0;top=0;left=0;bottom=0;right=0;collapsible=0;dropTarget=0;fillColor=none;points=[[0,0.5],[1,0.5]];portConstraint=eastwest;" parent="222" vertex="1">
                    <mxGeometry y="183" width="240" height="28" as="geometry"/>
                </mxCell>
                <mxCell id="307" value="&amp;nbsp; user_id" style="shape=partialRectangle;html=1;whiteSpace=wrap;connectable=0;overflow=hidden;top=0;left=0;bottom=0;right=0;pointerEvents=1;fillColor=#e3c800;fontColor=#FFFFFF;strokeColor=#B09500;align=left;" parent="306" vertex="1">
                    <mxGeometry width="120" height="28" as="geometry">
                        <mxRectangle width="120" height="28" as="alternateBounds"/>
                    </mxGeometry>
                </mxCell>
                <mxCell id="359" value="&lt;span style=&quot;color: rgb(255, 255, 255);&quot;&gt;&amp;nbsp; INT&lt;/span&gt;" style="shape=partialRectangle;html=1;whiteSpace=wrap;connectable=0;overflow=hidden;top=0;left=0;bottom=0;right=0;pointerEvents=1;fillColor=#e3c800;fontColor=#000000;strokeColor=#B09500;align=left;" parent="306" vertex="1">
                    <mxGeometry x="120" width="120" height="28" as="geometry">
                        <mxRectangle width="120" height="28" as="alternateBounds"/>
                    </mxGeometry>
                </mxCell>
                <mxCell id="308" value="" style="shape=tableRow;horizontal=0;startSize=0;swimlaneHead=0;swimlaneBody=0;top=0;left=0;bottom=0;right=0;collapsible=0;dropTarget=0;fillColor=none;points=[[0,0.5],[1,0.5]];portConstraint=eastwest;" parent="222" vertex="1">
                    <mxGeometry y="211" width="240" height="29" as="geometry"/>
                </mxCell>
                <mxCell id="309" value="&amp;nbsp; categories_id" style="shape=partialRectangle;html=1;whiteSpace=wrap;connectable=0;overflow=hidden;top=0;left=0;bottom=0;right=0;pointerEvents=1;fillColor=#e3c800;fontColor=#FFFFFF;strokeColor=#B09500;align=left;" parent="308" vertex="1">
                    <mxGeometry width="120" height="29" as="geometry">
                        <mxRectangle width="120" height="29" as="alternateBounds"/>
                    </mxGeometry>
                </mxCell>
                <mxCell id="360" value="&lt;span style=&quot;color: rgb(255, 255, 255);&quot;&gt;&amp;nbsp; INT&lt;/span&gt;" style="shape=partialRectangle;html=1;whiteSpace=wrap;connectable=0;overflow=hidden;top=0;left=0;bottom=0;right=0;pointerEvents=1;fillColor=#e3c800;fontColor=#000000;strokeColor=#B09500;align=left;" parent="308" vertex="1">
                    <mxGeometry x="120" width="120" height="29" as="geometry">
                        <mxRectangle width="120" height="29" as="alternateBounds"/>
                    </mxGeometry>
                </mxCell>
                <mxCell id="233" value="Comments" style="shape=table;startSize=40;container=1;collapsible=0;childLayout=tableLayout;" parent="1" vertex="1">
                    <mxGeometry x="440" y="921" width="240" height="208" as="geometry"/>
                </mxCell>
                <mxCell id="234" value="" style="shape=tableRow;horizontal=0;startSize=0;swimlaneHead=0;swimlaneBody=0;top=0;left=0;bottom=0;right=0;collapsible=0;dropTarget=0;fillColor=#60a917;points=[[0,0.5],[1,0.5]];portConstraint=eastwest;fontColor=#ffffff;strokeColor=#2D7600;" parent="233" vertex="1">
                    <mxGeometry y="40" width="240" height="28" as="geometry"/>
                </mxCell>
                <mxCell id="235" value="&amp;nbsp; id" style="shape=partialRectangle;html=1;whiteSpace=wrap;connectable=0;overflow=hidden;top=0;left=0;bottom=0;right=0;pointerEvents=1;fillColor=#008a00;fontColor=#ffffff;strokeColor=#005700;align=left;" parent="234" vertex="1">
                    <mxGeometry width="120" height="28" as="geometry">
                        <mxRectangle width="120" height="28" as="alternateBounds"/>
                    </mxGeometry>
                </mxCell>
                <mxCell id="334" value="&amp;nbsp; INT" style="shape=partialRectangle;html=1;whiteSpace=wrap;connectable=0;overflow=hidden;top=0;left=0;bottom=0;right=0;pointerEvents=1;fillColor=#008a00;fontColor=#ffffff;strokeColor=#005700;align=left;" parent="234" vertex="1">
                    <mxGeometry x="120" width="120" height="28" as="geometry">
                        <mxRectangle width="120" height="28" as="alternateBounds"/>
                    </mxGeometry>
                </mxCell>
                <mxCell id="236" value="" style="shape=tableRow;horizontal=0;startSize=0;swimlaneHead=0;swimlaneBody=0;top=0;left=0;bottom=0;right=0;collapsible=0;dropTarget=0;fillColor=none;points=[[0,0.5],[1,0.5]];portConstraint=eastwest;" parent="233" vertex="1">
                    <mxGeometry y="68" width="240" height="28" as="geometry"/>
                </mxCell>
                <mxCell id="237" value="&amp;nbsp; content" style="shape=partialRectangle;html=1;whiteSpace=wrap;connectable=0;overflow=hidden;top=0;left=0;bottom=0;right=0;pointerEvents=1;fillColor=#008a00;fontColor=#ffffff;strokeColor=#005700;align=left;" parent="236" vertex="1">
                    <mxGeometry width="120" height="28" as="geometry">
                        <mxRectangle width="120" height="28" as="alternateBounds"/>
                    </mxGeometry>
                </mxCell>
                <mxCell id="335" value="&amp;nbsp; TEXT" style="shape=partialRectangle;html=1;whiteSpace=wrap;connectable=0;overflow=hidden;top=0;left=0;bottom=0;right=0;pointerEvents=1;fillColor=#008a00;fontColor=#ffffff;strokeColor=#005700;align=left;" parent="236" vertex="1">
                    <mxGeometry x="120" width="120" height="28" as="geometry">
                        <mxRectangle width="120" height="28" as="alternateBounds"/>
                    </mxGeometry>
                </mxCell>
                <mxCell id="238" value="" style="shape=tableRow;horizontal=0;startSize=0;swimlaneHead=0;swimlaneBody=0;top=0;left=0;bottom=0;right=0;collapsible=0;dropTarget=0;fillColor=none;points=[[0,0.5],[1,0.5]];portConstraint=eastwest;" parent="233" vertex="1">
                    <mxGeometry y="96" width="240" height="28" as="geometry"/>
                </mxCell>
                <mxCell id="239" value="&amp;nbsp; creation_date" style="shape=partialRectangle;html=1;whiteSpace=wrap;connectable=0;overflow=hidden;top=0;left=0;bottom=0;right=0;pointerEvents=1;fillColor=#008a00;fontColor=#ffffff;strokeColor=#005700;align=left;" parent="238" vertex="1">
                    <mxGeometry width="120" height="28" as="geometry">
                        <mxRectangle width="120" height="28" as="alternateBounds"/>
                    </mxGeometry>
                </mxCell>
                <mxCell id="336" value="&amp;nbsp; DATETIME" style="shape=partialRectangle;html=1;whiteSpace=wrap;connectable=0;overflow=hidden;top=0;left=0;bottom=0;right=0;pointerEvents=1;fillColor=#008a00;fontColor=#ffffff;strokeColor=#005700;align=left;" parent="238" vertex="1">
                    <mxGeometry x="120" width="120" height="28" as="geometry">
                        <mxRectangle width="120" height="28" as="alternateBounds"/>
                    </mxGeometry>
                </mxCell>
                <mxCell id="240" value="" style="shape=tableRow;horizontal=0;startSize=0;swimlaneHead=0;swimlaneBody=0;top=0;left=0;bottom=0;right=0;collapsible=0;dropTarget=0;fillColor=none;points=[[0,0.5],[1,0.5]];portConstraint=eastwest;" parent="233" vertex="1">
                    <mxGeometry y="124" width="240" height="28" as="geometry"/>
                </mxCell>
                <mxCell id="241" value="&amp;nbsp; edit_date" style="shape=partialRectangle;html=1;whiteSpace=wrap;connectable=0;overflow=hidden;top=0;left=0;bottom=0;right=0;pointerEvents=1;fillColor=#008a00;fontColor=#ffffff;strokeColor=#005700;align=left;" parent="240" vertex="1">
                    <mxGeometry width="120" height="28" as="geometry">
                        <mxRectangle width="120" height="28" as="alternateBounds"/>
                    </mxGeometry>
                </mxCell>
                <mxCell id="337" value="&amp;nbsp; DATETIME" style="shape=partialRectangle;html=1;whiteSpace=wrap;connectable=0;overflow=hidden;top=0;left=0;bottom=0;right=0;pointerEvents=1;fillColor=#008a00;fontColor=#ffffff;strokeColor=#005700;align=left;" parent="240" vertex="1">
                    <mxGeometry x="120" width="120" height="28" as="geometry">
                        <mxRectangle width="120" height="28" as="alternateBounds"/>
                    </mxGeometry>
                </mxCell>
                <mxCell id="242" value="" style="shape=tableRow;horizontal=0;startSize=0;swimlaneHead=0;swimlaneBody=0;top=0;left=0;bottom=0;right=0;collapsible=0;dropTarget=0;fillColor=none;points=[[0,0.5],[1,0.5]];portConstraint=eastwest;" parent="233" vertex="1">
                    <mxGeometry y="152" width="240" height="28" as="geometry"/>
                </mxCell>
                <mxCell id="243" value="&amp;nbsp; user_id" style="shape=partialRectangle;html=1;whiteSpace=wrap;connectable=0;overflow=hidden;top=0;left=0;bottom=0;right=0;pointerEvents=1;fillColor=#008a00;fontColor=#ffffff;strokeColor=#005700;align=left;" parent="242" vertex="1">
                    <mxGeometry width="120" height="28" as="geometry">
                        <mxRectangle width="120" height="28" as="alternateBounds"/>
                    </mxGeometry>
                </mxCell>
                <mxCell id="338" value="&amp;nbsp; INT" style="shape=partialRectangle;html=1;whiteSpace=wrap;connectable=0;overflow=hidden;top=0;left=0;bottom=0;right=0;pointerEvents=1;fillColor=#008a00;fontColor=#ffffff;strokeColor=#005700;align=left;" parent="242" vertex="1">
                    <mxGeometry x="120" width="120" height="28" as="geometry">
                        <mxRectangle width="120" height="28" as="alternateBounds"/>
                    </mxGeometry>
                </mxCell>
                <mxCell id="291" value="" style="shape=tableRow;horizontal=0;startSize=0;swimlaneHead=0;swimlaneBody=0;top=0;left=0;bottom=0;right=0;collapsible=0;dropTarget=0;fillColor=none;points=[[0,0.5],[1,0.5]];portConstraint=eastwest;" parent="233" vertex="1">
                    <mxGeometry y="180" width="240" height="28" as="geometry"/>
                </mxCell>
                <mxCell id="292" value="&amp;nbsp; article_id" style="shape=partialRectangle;html=1;whiteSpace=wrap;connectable=0;overflow=hidden;top=0;left=0;bottom=0;right=0;pointerEvents=1;fillColor=#008a00;fontColor=#ffffff;strokeColor=#005700;align=left;" parent="291" vertex="1">
                    <mxGeometry width="120" height="28" as="geometry">
                        <mxRectangle width="120" height="28" as="alternateBounds"/>
                    </mxGeometry>
                </mxCell>
                <mxCell id="339" value="&amp;nbsp; INT" style="shape=partialRectangle;html=1;whiteSpace=wrap;connectable=0;overflow=hidden;top=0;left=0;bottom=0;right=0;pointerEvents=1;fillColor=#008a00;fontColor=#ffffff;strokeColor=#005700;align=left;" parent="291" vertex="1">
                    <mxGeometry x="120" width="120" height="28" as="geometry">
                        <mxRectangle width="120" height="28" as="alternateBounds"/>
                    </mxGeometry>
                </mxCell>
                <mxCell id="255" value="1 , N" style="rounded=1;whiteSpace=wrap;html=1;" parent="1" vertex="1">
                    <mxGeometry x="760" y="830" width="40" height="20" as="geometry"/>
                </mxCell>
                <mxCell id="402" value="" style="ellipse;whiteSpace=wrap;html=1;aspect=fixed;" parent="1" vertex="1">
                    <mxGeometry x="430" y="1080" width="10" height="10" as="geometry"/>
                </mxCell>
                <mxCell id="404" value="" style="edgeStyle=entityRelationEdgeStyle;html=1;exitX=1;exitY=0.5;exitDx=0;exitDy=0;entryX=0;entryY=0.5;entryDx=0;entryDy=0;shape=link;endArrow=none;" parent="1" source="287" target="403" edge="1">
                    <mxGeometry relative="1" as="geometry">
                        <mxPoint x="280" y="916" as="sourcePoint"/>
                        <mxPoint x="520" y="797" as="targetPoint"/>
                    </mxGeometry>
                </mxCell>
                <mxCell id="403" value="" style="ellipse;whiteSpace=wrap;html=1;aspect=fixed;" parent="1" vertex="1">
                    <mxGeometry x="280" y="911" width="10" height="10" as="geometry"/>
                </mxCell>
                <mxCell id="414" style="edgeStyle=orthogonalEdgeStyle;html=1;exitX=0;exitY=0.5;exitDx=0;exitDy=0;elbow=vertical;entryX=1;entryY=0.5;entryDx=0;entryDy=0;" parent="1" source="210" target="403" edge="1">
                    <mxGeometry relative="1" as="geometry">
                        <mxPoint x="430" y="820" as="targetPoint"/>
                        <Array as="points">
                            <mxPoint x="420" y="797"/>
                            <mxPoint x="420" y="916"/>
                        </Array>
                    </mxGeometry>
                </mxCell>
                <mxCell id="415" value="" style="endArrow=none;html=1;elbow=vertical;" parent="1" edge="1">
                    <mxGeometry width="50" height="50" relative="1" as="geometry">
                        <mxPoint x="500" y="780" as="sourcePoint"/>
                        <mxPoint x="500" y="815" as="targetPoint"/>
                    </mxGeometry>
                </mxCell>
                <mxCell id="417" value="" style="endArrow=none;html=1;elbow=vertical;" parent="1" edge="1">
                    <mxGeometry width="50" height="50" relative="1" as="geometry">
                        <mxPoint x="510" y="780" as="sourcePoint"/>
                        <mxPoint x="510" y="815" as="targetPoint"/>
                    </mxGeometry>
                </mxCell>
                <mxCell id="418" value="" style="endArrow=none;html=1;elbow=vertical;" parent="1" edge="1">
                    <mxGeometry width="50" height="50" relative="1" as="geometry">
                        <mxPoint x="35" y="760" as="sourcePoint"/>
                        <mxPoint x="34.5" y="790" as="targetPoint"/>
                    </mxGeometry>
                </mxCell>
                <mxCell id="420" value="" style="endArrow=none;html=1;elbow=vertical;" parent="1" edge="1">
                    <mxGeometry width="50" height="50" relative="1" as="geometry">
                        <mxPoint x="290" y="760" as="sourcePoint"/>
                        <mxPoint x="290" y="790" as="targetPoint"/>
                    </mxGeometry>
                </mxCell>
                <mxCell id="421" value="" style="endArrow=none;html=1;elbow=vertical;" parent="1" edge="1">
                    <mxGeometry width="50" height="50" relative="1" as="geometry">
                        <mxPoint x="300" y="760" as="sourcePoint"/>
                        <mxPoint x="300" y="790" as="targetPoint"/>
                    </mxGeometry>
                </mxCell>
                <mxCell id="430" style="edgeStyle=orthogonalEdgeStyle;html=1;exitX=1;exitY=0.5;exitDx=0;exitDy=0;entryX=0;entryY=0.5;entryDx=0;entryDy=0;elbow=vertical;" parent="1" source="197" target="402" edge="1">
                    <mxGeometry relative="1" as="geometry">
                        <Array as="points">
                            <mxPoint x="380" y="774"/>
                            <mxPoint x="380" y="1085"/>
                        </Array>
                    </mxGeometry>
                </mxCell>
                <mxCell id="431" value="" style="ellipse;whiteSpace=wrap;html=1;aspect=fixed;" parent="1" vertex="1">
                    <mxGeometry x="30" y="1270" width="10" height="10" as="geometry"/>
                </mxCell>
                <mxCell id="432" value="" style="endArrow=none;html=1;elbow=vertical;" parent="1" edge="1">
                    <mxGeometry width="50" height="50" relative="1" as="geometry">
                        <mxPoint x="30" y="760" as="sourcePoint"/>
                        <mxPoint x="30" y="790" as="targetPoint"/>
                    </mxGeometry>
                </mxCell>
                <mxCell id="433" value="" style="endArrow=none;html=1;elbow=vertical;" parent="1" edge="1">
                    <mxGeometry width="50" height="50" relative="1" as="geometry">
                        <mxPoint x="290" y="1120" as="sourcePoint"/>
                        <mxPoint x="290" y="1150" as="targetPoint"/>
                    </mxGeometry>
                </mxCell>
                <mxCell id="434" value="" style="endArrow=none;html=1;elbow=vertical;" parent="1" edge="1">
                    <mxGeometry width="50" height="50" relative="1" as="geometry">
                        <mxPoint x="299" y="1120" as="sourcePoint"/>
                        <mxPoint x="299" y="1150" as="targetPoint"/>
                    </mxGeometry>
                </mxCell>
                <mxCell id="435" value="" style="ellipse;whiteSpace=wrap;html=1;aspect=fixed;" parent="1" vertex="1">
                    <mxGeometry x="430" y="1110" width="10" height="10" as="geometry"/>
                </mxCell>
                <mxCell id="436" value="" style="ellipse;whiteSpace=wrap;html=1;aspect=fixed;" parent="1" vertex="1">
                    <mxGeometry x="280" y="1300" width="10" height="10" as="geometry"/>
                </mxCell>
                <mxCell id="437" style="edgeStyle=orthogonalEdgeStyle;html=1;exitX=0;exitY=0.5;exitDx=0;exitDy=0;entryX=0;entryY=0.5;entryDx=0;entryDy=0;elbow=vertical;" parent="1" source="197" target="431" edge="1">
                    <mxGeometry relative="1" as="geometry"/>
                </mxCell>
                <mxCell id="439" value="" style="endArrow=none;html=1;elbow=vertical;" parent="1" edge="1">
                    <mxGeometry width="50" height="50" relative="1" as="geometry">
                        <mxPoint x="500" y="1225" as="sourcePoint"/>
                        <mxPoint x="500" y="1255" as="targetPoint"/>
                    </mxGeometry>
                </mxCell>
                <mxCell id="442" style="edgeStyle=orthogonalEdgeStyle;html=1;exitX=1;exitY=0.5;exitDx=0;exitDy=0;entryX=0;entryY=0.5;entryDx=0;entryDy=0;elbow=vertical;" parent="1" source="223" target="435" edge="1">
                    <mxGeometry relative="1" as="geometry"/>
                </mxCell>
                <mxCell id="445" style="edgeStyle=entityRelationEdgeStyle;html=1;exitX=0;exitY=0.5;exitDx=0;exitDy=0;entryX=1;entryY=0.5;entryDx=0;entryDy=0;" parent="1" source="217" target="436" edge="1">
                    <mxGeometry relative="1" as="geometry"/>
                </mxCell>
                <mxCell id="446" value="" style="endArrow=none;html=1;elbow=vertical;" parent="1" edge="1">
                    <mxGeometry width="50" height="50" relative="1" as="geometry">
                        <mxPoint x="510" y="1225" as="sourcePoint"/>
                        <mxPoint x="510" y="1255" as="targetPoint"/>
                    </mxGeometry>
                </mxCell>
            </root>
        </mxGraphModel>
    </diagram>
</mxfile>